<svg width="74" height="74" viewBox="0 0 74 74" fill="none" xmlns="http://www.w3.org/2000/svg">
<path fill-rule="evenodd" clip-rule="evenodd" d="M44.4693 69.375C33.0386 68.5448 16.2962 54.8802 16.2962 37C16.2962 19.1221 32.6802 5.62862 44.4693 4.625C48.0167 4.32438 46.1413 4.33594 49.4228 4.625C41.706 9.4905 32.8745 23.0371 32.8745 37C32.8745 50.9629 39.2986 63.8689 49.4228 69.375C46.3055 69.6641 47.8641 69.6201 44.4693 69.375ZM37.592 37C37.592 21.0437 47.9497 7.48331 62.4375 2.29175C58.3744 0.834877 54.0038 0 49.4228 0C28.5131 0 11.5625 16.5667 11.5625 37C11.5625 57.4356 28.5131 74 49.4228 74C54.0038 74 58.3744 73.1651 62.4375 71.7082C47.9497 66.5167 37.592 52.9586 37.592 37Z" fill="#620097"/>
</svg>
