<svg width="86" height="58" viewBox="0 0 86 58" fill="none" xmlns="http://www.w3.org/2000/svg">
<path fill-rule="evenodd" clip-rule="evenodd" d="M14.9583 46.0333C17.6185 32.9556 29.1282 23.1 43 23.1C56.8718 23.1 68.3815 32.9556 71.0418 46.0333H77.0732C74.8716 29.8625 60.4752 17.3667 43 17.3667C25.5248 17.3667 11.1284 29.8625 8.9268 46.0333H14.9583ZM83.1334 51.7667H2.86667L0 54.6333L2.86667 57.5H83.1334L86 54.6333L83.1334 51.7667ZM8.6 24.2868H12.6535V20.2333L8.6 16.1799H4.54653V20.2333L8.6 24.2868ZM77.4 24.2868L81.4535 20.2333V16.1799H77.4L73.3466 20.2333V24.2868H77.4ZM43 11.6333L45.8667 8.76666V3.03332L43 0.166656L40.1333 3.03332V8.76666L43 11.6333Z" fill="#FDBA31"/>
</svg>
