<svg width="800" height="800" viewBox="0 0 800 800" fill="none" xmlns="http://www.w3.org/2000/svg">
<g clip-path="url(#clip0_247_45)">
<path d="M212.5 399.66C212.5 503.355 296.446 587.418 400 587.418C503.554 587.418 587.5 503.355 587.5 399.66C587.5 295.964 503.554 211.901 400 211.901C296.446 211.901 212.5 295.964 212.5 399.66ZM562.5 399.66C562.5 489.385 489.603 562.383 400 562.383C310.398 562.383 237.5 489.385 237.5 399.66C237.5 309.934 310.398 236.936 400 236.936C489.603 236.936 562.5 309.934 562.5 399.66Z" fill="#FDBA31"/>
<path d="M409.277 147.126C416.186 147.126 421.777 141.528 421.777 134.609V12.5175C421.777 5.59875 416.186 0 409.277 0C402.367 0 396.777 5.59875 396.777 12.5175V134.609C396.777 141.528 402.367 147.126 409.277 147.126Z" fill="#FDBA31"/>
<path d="M608.056 58.235C602.05 54.7387 594.409 56.8037 590.979 62.7937L529.931 168.517C526.465 174.507 528.515 182.16 534.485 185.619C536.463 186.767 538.611 187.306 540.735 187.306C545.056 187.306 549.255 185.069 551.563 181.06L612.61 75.335C616.076 69.3462 614.026 61.6937 608.056 58.235Z" fill="#FDBA31"/>
<path d="M634.521 287.859C636.634 287.859 638.781 287.321 640.759 286.184L746.484 225.139C752.454 221.691 754.516 214.027 751.061 208.037C747.607 202.072 740.015 199.994 733.984 203.454L628.259 264.499C622.29 267.946 620.228 275.611 623.681 281.6C625.989 285.61 630.2 287.859 634.521 287.859Z" fill="#FDBA31"/>
<path d="M147.095 409.277C147.095 402.36 141.504 396.761 134.595 396.761H12.5C5.59125 396.761 0 402.36 0 409.277C0 416.196 5.59125 421.795 12.5 421.795H134.595C141.504 421.795 147.095 416.196 147.095 409.277Z" fill="#FDBA31"/>
<path d="M53.5274 225.139L159.252 286.184C161.23 287.321 163.366 287.859 165.49 287.859C169.811 287.859 174.024 285.61 176.33 281.6C179.785 275.611 177.723 267.946 171.752 264.499L66.0274 203.454C60.0101 199.994 52.3799 202.047 48.9499 208.037C45.4949 214.027 47.5587 221.691 53.5274 225.139Z" fill="#FDBA31"/>
<path d="M259.265 187.306C261.389 187.306 263.538 186.767 265.503 185.631C271.484 182.16 273.535 174.507 270.08 168.53L209.045 62.8062C205.579 56.8037 197.925 54.7512 191.968 58.2224C185.986 61.6937 183.935 69.3462 187.39 75.3237L248.425 181.047C250.745 185.069 254.944 187.306 259.265 187.306Z" fill="#FDBA31"/>
<path d="M409.277 652.899C402.367 652.899 396.777 658.497 396.777 665.416V787.482C396.777 794.401 402.367 800 409.277 800C416.186 800 421.777 794.401 421.777 787.482V665.416C421.777 658.497 416.186 652.899 409.277 652.899Z" fill="#FDBA31"/>
<path d="M281.591 623.671C275.574 620.176 267.956 622.241 264.514 628.231L203.466 733.955C200 739.945 202.05 747.596 208.02 751.056C209.998 752.205 212.146 752.742 214.27 752.742C218.591 752.742 222.79 750.506 225.098 746.496L286.145 640.772C289.611 634.782 287.561 627.131 281.591 623.671Z" fill="#FDBA31"/>
<path d="M168.53 529.903L62.8052 590.949C56.8364 594.395 54.7728 602.06 58.2277 608.05C60.5353 612.059 64.7464 614.309 69.0677 614.309C71.1789 614.309 73.3276 613.77 75.3052 612.634L181.03 551.588C186.999 548.141 189.063 540.476 185.608 534.486C182.165 528.509 174.549 526.431 168.53 529.903Z" fill="#FDBA31"/>
<path d="M787.5 396.761H665.43C658.52 396.761 652.93 402.36 652.93 409.277C652.93 416.196 658.52 421.795 665.43 421.795H787.5C794.409 421.795 800 416.196 800 409.277C800 402.36 794.409 396.761 787.5 396.761Z" fill="#FDBA31"/>
<path d="M737.195 590.949L631.47 529.903C625.464 526.444 617.823 528.509 614.393 534.486C610.938 540.476 613 548.141 618.97 551.588L724.695 612.634C726.673 613.77 728.809 614.309 730.933 614.309C735.254 614.309 739.465 612.059 741.773 608.05C745.228 602.06 743.164 594.395 737.195 590.949Z" fill="#FDBA31"/>
<path d="M535.474 628.231C532.031 622.241 524.39 620.176 518.396 623.671C512.426 627.131 510.376 634.782 513.843 640.772L574.89 746.496C577.198 750.506 581.396 752.742 585.718 752.742C587.841 752.742 589.99 752.205 591.968 751.056C597.936 747.596 599.988 739.945 596.521 733.955L535.474 628.231Z" fill="#FDBA31"/>
</g>
<defs>
<clipPath id="clip0_247_45">
<rect width="800" height="800" fill="white"/>
</clipPath>
</defs>
</svg>
